PathFileType	4	(X/Y/Z)	C:\Users\°ÂÌØÂü\Desktop\20201223\Trimmed_bx_n_5_501.trc
DataRate	CameraRate	NumFrames	NumMarkers	Units	OrigDataRate	OrigDataStartFrame	OrigNumFrames
50.00	50.00	      7	43	mm	50.00	542	      1445
Frame#	Time	Top.Head			R.Acromium			L.Acromium			Sternum			R.ASIS			L.ASIS			V.Sacral			R.Thigh.Upper			R.Thigh.Front			R.Thigh.Rear			R.Knee.Lat			R.Knee.Med			R.Shank.Upper			R.Shank.Front			R.Shank.Rear			R.Ankle.Lat			R.Midfoot.Lat			R.Toe.Lat			R.Toe.Tip			R.Toe.Med			R.Ankle.Med			R.Midfoot.Sup			R.Heel			L.Thigh.Upper			L.Thigh.Front			L.Thigh.Rear			L.Knee.Lat			L.Knee.Med			L.Shank.Upper			L.Shank.Front			L.Shank.Rear			L.Ankle.Lat			L.Midfoot.Lat			L.Toe.Lat			L.Toe.Tip			L.Toe.Med			L.Ankle.Med			L.Midfoot.Sup			L.Heel			origin1 front left			origin2 front right			origin 3 back right			origin 4 back leftt			
		X1	Y1	Z1	X2	Y2	Z2	X3	Y3	Z3	X4	Y4	Z4	X5	Y5	Z5	X6	Y6	Z6	X7	Y7	Z7	X8	Y8	Z8	X9	Y9	Z9	X10	Y10	Z10	X11	Y11	Z11	X12	Y12	Z12	X13	Y13	Z13	X14	Y14	Z14	X15	Y15	Z15	X16	Y16	Z16	X17	Y17	Z17	X18	Y18	Z18	X19	Y19	Z19	X20	Y20	Z20	X21	Y21	Z21	X22	Y22	Z22	X23	Y23	Z23	X24	Y24	Z24	X25	Y25	Z25	X26	Y26	Z26	X27	Y27	Z27	X28	Y28	Z28	X29	Y29	Z29	X30	Y30	Z30	X31	Y31	Z31	X32	Y32	Z32	X33	Y33	Z33	X34	Y34	Z34	X35	Y35	Z35	X36	Y36	Z36	X37	Y37	Z37	X38	Y38	Z38	X39	Y39	Z39	X40	Y40	Z40	X41	Y41	Z41	X42	Y42	Z42	X43	Y43	Z43	

542	10.820	-670.21210	250.64749	1829.97388	-619.32056	69.72118	1531.63416	-624.88257	431.99353	1525.32202	-509.17209	251.46313	1360.46106	-511.49066	123.76855	1031.91565	-489.87698	350.47534	1035.66003	-702.86493	245.19084	1053.10339	-592.04877	71.91270	831.69476	-506.01782	132.61325	809.62811	-601.20142	88.02473	722.85388	-645.81696	111.22516	604.85211	-627.71753	219.26402	562.20160	-680.94684	111.15177	539.95160	-604.00641	161.02078	522.04333	-692.32428	104.17088	489.13461	-697.09161	136.57567	213.24132	-623.89166	74.80794	166.16158	-577.61975	51.28408	161.32744	-501.14172	94.99947	159.22340	-543.25787	146.34204	162.21840	-646.93439	213.61427	218.53748	-605.79089	185.65996	168.47388	-732.78271	203.38312	169.63713	-585.40509	431.57602	853.16736	-504.73523	381.79257	811.29651	-614.14508	419.66217	740.65363	-637.30780	400.67776	606.25824	-656.06384	403.72562	561.38623	240.64661	-2341.69214	796.39307	-597.81830	350.53613	533.26294	-713.45514	403.62137	499.06500	-679.98505	405.46808	215.92256	-588.50153	461.87994	164.19000	-550.89349	473.99890	158.93317	-487.91116	424.18478	166.00908	-525.82336	383.44305	176.08838	-641.28058	317.03387	207.16449	-593.89203	340.99893	167.89165	-731.86566	333.38864	162.57677	-443.70651	448.14981	146.13652	-450.42969	74.98039	143.06541	-806.24335	82.61367	140.66763	-800.02509	456.37833	144.59404	
543	10.840	-670.22076	250.72043	1830.00000	-619.46570	69.75488	1531.62695	-625.04797	432.04282	1525.27966	-509.28226	251.47723	1360.44397	-511.58093	123.76070	1031.98865	-489.91214	350.48361	1035.67456	-702.93665	245.24243	1053.06775	-592.08813	71.92564	831.70477	-506.13174	132.58502	809.62427	-601.22290	88.02995	722.85742	-645.82104	111.23236	604.84558	-627.72894	219.25388	562.20038	-680.95044	111.15520	539.95062	-604.00195	161.02049	522.04462	-692.32831	104.17286	489.14191	-697.09027	136.58580	213.24541	-623.89569	74.81384	166.15167	-577.62134	51.29237	161.32997	-501.11636	95.01894	159.20207	-543.25342	146.33499	162.22507	-646.92908	213.62253	218.53537	-605.78162	185.67078	168.46768	-732.66095	203.47194	169.58147	-585.44324	431.57361	853.15063	-504.78510	381.78448	811.29633	-614.17267	419.66492	740.64087	-637.33392	400.67975	606.25818	-656.09265	403.71655	561.37970	245.94690	-2360.10864	797.82275	-597.85352	350.54889	533.26593	-713.49286	403.63544	499.08420	-679.98578	405.46710	215.92561	-588.50336	461.88156	164.18353	-550.89301	474.00287	158.93079	-487.90915	424.18457	165.99586	-525.82489	383.44528	176.08878	-641.26007	317.02594	207.14723	-593.94739	341.02115	167.82899	-731.86194	333.39072	162.57704	-443.71008	448.15628	146.14749	-450.43054	74.97219	143.06415	-806.25342	82.58752	140.67783	-800.02246	456.37689	144.60063	
544	10.860	-670.25378	250.81110	1830.01648	-619.60474	69.79926	1531.62036	-625.19092	432.09735	1525.23865	-509.37820	251.49968	1360.42651	-511.65268	123.74701	1032.05811	-489.92590	350.48911	1035.68494	-702.98926	245.31422	1053.03491	-592.13239	71.94324	831.71808	-506.24036	132.56781	809.61859	-601.24524	88.03720	722.86182	-645.83252	111.24178	604.83997	-627.73480	219.24513	562.20062	-680.95734	111.16116	539.95490	-603.99988	161.01913	522.04694	-692.33392	104.17722	489.14890	-697.08759	136.59554	213.24919	-623.89948	74.81923	166.13982	-577.62323	51.29851	161.33318	-501.09244	95.03872	159.18111	-543.25012	146.32967	162.22958	-646.92340	213.62889	218.53310	-605.76880	185.68410	168.46078	-732.55536	203.54813	169.53537	-585.46002	431.57672	853.13123	-504.82114	381.77618	811.29083	-614.18988	419.67038	740.62909	-637.35956	400.67972	606.25439	-656.12366	403.70477	561.36633	250.68640	-2376.81860	799.10754	-597.88025	350.55872	533.27576	-713.53027	403.65836	499.10776	-679.98468	405.46906	215.93060	-588.50580	461.88037	164.17796	-550.89111	474.00494	158.92773	-487.90497	424.18555	165.98444	-525.82684	383.44766	176.08884	-641.23895	317.02594	207.12358	-594.00256	341.04404	167.76761	-731.85309	333.39352	162.58125	-443.71362	448.16302	146.15900	-450.43176	74.96592	143.06635	-806.26416	82.56033	140.68851	-800.01910	456.37408	144.60658	
545	10.880	-670.30933	250.91754	1830.02502	-619.73553	69.85299	1531.61401	-625.30908	432.15442	1525.20056	-509.46222	251.53108	1360.40869	-511.70987	123.73135	1032.12097	-489.92511	350.49326	1035.69043	-703.02643	245.40204	1053.00525	-592.18158	71.96414	831.73572	-506.34009	132.56459	809.61249	-601.26825	88.04607	722.86761	-645.85083	111.25341	604.83582	-627.73590	219.23909	562.20264	-680.96759	111.16917	539.96320	-604.00006	161.01704	522.05060	-692.34094	104.18410	489.15433	-697.08344	136.60442	213.25232	-623.90247	74.82413	166.12666	-577.62518	51.30226	161.33701	-501.07047	95.05795	159.16164	-543.24762	146.32613	162.23178	-646.91730	213.63368	218.53090	-605.75269	185.69962	168.45337	-732.47101	203.60811	169.50093	-585.46033	431.58405	853.10944	-504.84695	381.77002	811.28137	-614.19989	419.67758	740.61810	-637.38647	400.67892	606.24670	-656.15649	403.69098	561.34674	254.85022	-2391.77466	800.24347	-597.90027	350.56625	533.29089	-713.56665	403.68884	499.13354	-679.98206	405.47360	215.93719	-588.50873	461.87656	164.17426	-550.88806	474.00510	158.92461	-487.89896	424.18747	165.97597	-525.82910	383.45010	176.08867	-641.21783	317.03061	207.09633	-594.05463	341.06650	167.71115	-731.83948	333.39615	162.58929	-443.71658	448.16953	146.17047	-450.43369	74.96183	143.07201	-806.27460	82.53410	140.69833	-800.01550	456.37006	144.61105	
546	10.900	-670.38507	251.03683	1830.02722	-619.85571	69.91463	1531.60767	-625.40161	432.21182	1525.16650	-509.53693	251.57219	1360.39026	-511.75659	123.71803	1032.17456	-489.91656	350.49802	1035.69080	-703.05212	245.50101	1052.97888	-592.23462	71.98711	831.75793	-506.42770	132.57697	809.60706	-601.29163	88.05666	722.87494	-645.87518	111.26709	604.83386	-627.73425	219.23695	562.20642	-680.98120	111.17880	539.97455	-604.00275	161.01479	522.05597	-692.34930	104.19368	489.15714	-697.07770	136.61230	213.25459	-623.90430	74.82867	166.11305	-577.62701	51.30357	161.34128	-501.05096	95.07581	159.14441	-543.24561	146.32439	162.23174	-646.91058	213.63739	218.52945	-605.73358	185.71681	168.44566	-732.41022	203.65038	169.47899	-585.44995	431.59427	853.08557	-504.86646	381.76825	811.26904	-614.20630	419.68600	740.60785	-637.41693	400.67880	606.23553	-656.19098	403.67545	561.32159	258.42371	-2404.92798	801.22668	-597.91565	350.57306	533.30890	-713.60150	403.72534	499.15918	-679.97827	405.48022	215.94476	-588.51227	461.87079	164.17303	-550.88422	474.00360	158.92194	-487.89172	424.18988	165.97127	-525.83148	383.45255	176.08842	-641.19775	317.03613	207.06940	-594.10052	341.08725	167.66315	-731.82190	333.39749	162.60054	-443.71844	448.17557	146.18143	-450.43637	74.95991	143.08072	-806.28351	82.51089	140.70590	-800.01202	456.36493	144.61324	
547	10.920	-670.47742	251.16525	1830.02490	-619.96301	69.98256	1531.60107	-625.46918	432.26804	1525.13745	-509.60468	251.62372	1360.37061	-511.79669	123.71111	1032.21729	-489.90680	350.50555	1035.68579	-703.07043	245.60606	1052.95642	-592.28943	72.01113	831.78455	-506.50095	132.60498	809.60352	-601.31537	88.06937	722.88379	-645.90485	111.28250	604.83502	-627.73303	219.23975	562.21161	-680.99768	111.18971	539.98822	-604.00830	161.01311	522.06287	-692.35925	104.20624	489.15656	-697.07043	136.61937	213.25598	-623.90466	74.83301	166.09995	-577.62848	51.30257	161.34575	-501.03418	95.09157	159.12984	-543.24384	146.32437	162.22983	-646.90295	213.64066	218.52953	-605.71204	185.73506	168.43790	-732.37201	203.67563	169.46901	-585.43512	431.60611	853.06012	-504.88367	381.77274	811.25482	-614.21240	419.69556	740.59918	-637.45306	400.68066	606.22174	-656.22711	403.65796	561.29156	261.39191	-2416.23071	802.05334	-597.92889	350.58124	533.32672	-713.63489	403.76596	499.18216	-679.97394	405.48807	215.95253	-588.51630	461.86392	164.17455	-550.88000	474.00098	158.92018	-487.88419	424.19244	165.97078	-525.83374	383.45496	176.08826	-641.17993	317.03909	207.04733	-594.13763	341.10513	167.62653	-731.80157	333.39633	162.61377	-443.71884	448.18094	146.19142	-450.43961	74.95988	143.09164	-806.28992	82.49265	140.70998	-800.00897	456.35895	144.61259	
548	10.940	-670.58209	251.29855	1830.01965	-620.05536	70.05511	1531.59424	-625.51379	432.32242	1525.11353	-509.66757	251.68622	1360.34888	-511.83362	123.71390	1032.24878	-489.90152	350.51804	1035.67578	-703.08551	245.71246	1052.93774	-592.34381	72.03542	831.81439	-506.55896	132.64719	809.60309	-601.33960	88.08481	722.89392	-645.93915	111.29933	604.84003	-627.73615	219.24817	562.21753	-681.01666	111.20164	540.00372	-604.01721	161.01286	522.07111	-692.37109	104.22214	489.15210	-697.06171	136.62605	213.25647	-623.90369	74.83729	166.08838	-577.62927	51.29963	161.35014	-501.02011	95.10467	159.11801	-543.24225	146.32591	162.22662	-646.89447	213.64410	218.53189	-605.68884	185.75366	168.43027	-732.35309	203.68631	169.46933	-585.42194	431.61896	853.03339	-504.90225	381.78476	811.23962	-614.22144	419.70685	740.59326	-637.49670	400.68561	606.20630	-656.26508	403.63834	561.25732	263.74011	-2425.63525	802.71942	-597.94244	350.59302	533.34119	-713.66724	403.80884	499.20007	-679.96960	405.49609	215.95952	-588.52075	461.85712	164.17860	-550.87573	473.99777	158.91953	-487.87714	424.19470	165.97459	-525.83569	383.45709	176.08824	-641.16638	317.03754	207.03481	-594.16376	341.11926	167.60327	-731.78021	333.39148	162.62724	-443.71750	448.18567	146.19997	-450.44296	74.96125	143.10368	-806.29285	82.48082	140.70972	-800.00653	456.35239	144.60892	
